<?xml version="1.0" encoding="UTF-8"?>
<!DOCTYPE svg PUBLIC "-//W3C//DTD SVG 1.1//EN" "http://www.w3.org/Graphics/SVG/1.1/DTD/svg11.dtd">
<!-- Creator: CorelDRAW 2020 (64-Bit) -->
<svg xmlns="http://www.w3.org/2000/svg" xml:space="preserve" width="87.7576mm" height="24.9691mm" version="1.1" style="shape-rendering:geometricPrecision; text-rendering:geometricPrecision; image-rendering:optimizeQuality; fill-rule:evenodd; clip-rule:evenodd" viewBox="0 0 8761.52 2492.86" xmlns:xlink="http://www.w3.org/1999/xlink" xmlns:xodm="http://www.corel.com/coreldraw/odm/2003">
    <path fill="#0077AA" d="M3.1 352.43c-2.08,-14.85 -3.1,-29.68 -3.1,-44.53 0,-14.85 1.03,-29.68 3.1,-44.53 3.44,-28.3 12.77,-52.13 28.3,-71.1 15.87,-19.34 35.2,-30.73 59.02,-34.86 6.91,-1.39 13.81,-2.08 21.41,-2.08 16.22,0 31.75,4.14 46.59,12.08 21.74,12.08 39.01,30.38 52.13,54.54 17.6,38.32 30.03,74.91 37.63,109.07 4.13,19.68 9.31,49.71 15.52,90.44 6.56,40.73 11.74,70.77 15.88,90.43 0,2.77 0.69,7.95 2.42,15.53 1.73,7.94 3.1,14.85 3.79,20.72 6.56,-10.01 15.19,-23.47 25.2,-40.39 78.7,-136.69 130.14,-223.68 153.61,-261.64 13.11,-23.47 35.89,-53.15 69.38,-88.71 28.3,-27.62 59.71,-41.42 94.58,-41.42 3.8,0 7.95,0 12.09,0 39.35,3.44 70.76,23.47 94.58,60.75 22.43,30.37 36.93,65.58 43.84,105.28 9.31,41.42 14.15,81.46 14.15,120.46 0,12.43 -0.34,24.86 -1.03,37.63 -4.83,110.46 -13.47,246.46 -25.89,407.66 -0.7,20.03 -2.08,51.44 -4.14,93.55 -2.08,42.11 -3.45,73.87 -4.14,95.27 0,15.53 2.07,27.62 6.21,35.56 1.38,-2.77 4.49,-10.01 9.66,-21.75 5.18,-11.73 8.29,-20.71 9.66,-26.92 88.03,-222.3 180.88,-406.28 278.57,-551.95 21.74,-31.76 54.88,-76.97 99.41,-135.31 44.19,-58.34 69.73,-92.16 76.64,-101.82 25.2,-27.62 47.63,-46.25 67.65,-55.58 20.37,-14.85 41.77,-22.43 64.56,-22.43 6.56,0 14.15,1.04 22.43,3.1 30.03,6.9 53.85,25.2 71.45,54.88 17.26,29 28.99,60.75 35.9,94.93 2.07,17.61 3.44,35.21 4.14,52.13 0.69,17.26 0,36.59 -2.08,57.99 -2.07,21.06 -3.79,37.28 -5.87,47.64 -1.73,10.7 -4.83,29.34 -9.31,55.57 -4.14,26.24 -6.91,42.11 -7.94,47.29 -2.77,17.95 -7.25,44.53 -13.47,79.74 -5.87,35.2 -10.35,62.13 -13.46,80.77l-24.51 144.63c-13.46,86.98 -26.58,165.34 -39.35,235.41 -7.26,11.05 -11.05,27.28 -11.05,48.67 1.38,0 3.1,0.35 5.52,1.04 2.42,0.69 4.14,1.04 5.53,1.04 12.08,-14.16 29.68,-35.21 52.8,-63.52 23.13,-27.96 41.08,-49.36 53.85,-63.52 8.63,-10 20.02,-24.85 34.51,-44.18 14.51,-19.33 23.13,-31.07 26.59,-35.21l1.08 -1.07c-0.49,-6.34 -0.74,-12.65 -0.74,-18.95 -0.69,-5.52 -0.69,-10.7 0,-16.22 3.79,-65.24 24.86,-122.54 63.17,-172.25 37.97,-49.36 84.92,-84.91 140.84,-106.66 44.87,-17.6 90.43,-26.58 136.34,-26.58 20.03,0 40.73,1.73 61.79,5.17 5.18,1.39 14.5,2.08 27.28,2.08 43.14,0 76.29,15.87 99.06,47.63 4.14,6.21 8.29,10.7 12.43,13.46 98.38,73.87 152.22,190.54 161.55,350.02l0 74.56c24.85,-11.05 41.42,-18.99 49.71,-24.51 32.1,-18.29 67.65,-46.94 105.97,-85.6 5.52,-7.6 13.81,-18.3 25.2,-32.45 5.63,-6.96 10.22,-12.89 13.87,-17.85 3.92,-30.52 9.08,-61.26 15.46,-92.27 2.08,-19.33 8.29,-37.62 18.99,-54.53 17.26,-39.01 43.15,-58.34 77.66,-58.34 3.45,0 6.56,0.34 10.01,1.03 18.64,3.1 34.51,11.39 47.28,24.51 13.12,13.12 21.41,30.72 25.55,52.13 4.48,29.68 6.9,54.19 6.9,73.87l0 265.44 0 49.71c-1.38,16.22 -1.38,24.85 0,26.24 0.7,0.69 2.08,-0.69 4.49,-3.45 2.42,-3.1 5.52,-7.6 9.31,-13.81 3.45,-5.87 7.26,-12.43 11.05,-19.33 3.79,-6.56 8.29,-14.16 13.81,-23.13 5.17,-8.63 10.35,-16.56 15.19,-23.12 2.08,-3.45 5.18,-8.29 8.98,-14.16 4.14,-6.21 7.25,-10.69 9.32,-14.15l2.07 0c89.74,-124.62 143.6,-199.18 161.89,-223.34 47.29,-61.79 98.38,-110.46 153.95,-145.32 33.15,-22.43 62.14,-38.31 86.99,-47.63 19.68,-7.94 38.32,-12.08 56.61,-12.08 14.85,-0.69 29,1.73 42.46,7.25 31.07,10.7 54.54,33.14 70.08,67.66 18.64,39.01 31.41,78 37.28,117.36 2.76,17.26 4.14,37.63 4.14,60.4 0,45.92 -5.53,101.83 -16.22,168.11 -8.64,41.77 -20.72,104.94 -35.9,190.2 -15.19,84.91 -26.93,148.08 -34.86,189.84 -1.38,6.91 -2.42,13.81 -3.1,20.72 -0.69,7.25 -1.39,14.85 -2.08,22.78 -0.69,8.29 -1.04,14.5 -1.04,19.33l2.08 0c40.38,-40.38 93.89,-119.09 160.86,-235.76 53.88,-94.39 106.65,-196.68 157.92,-306.87 -8.64,-27.03 -12.95,-53.72 -12.95,-80.08 -0.69,-5.52 -0.69,-10.7 0,-16.22 3.79,-65.24 24.86,-122.54 63.17,-172.25 37.97,-49.36 84.92,-84.91 140.84,-106.66 44.87,-17.6 90.43,-26.58 136.34,-26.58 20.03,0 40.73,1.73 61.79,5.17 5.18,1.39 14.5,2.08 27.28,2.08 43.14,0 76.29,15.87 99.06,47.63 4.14,6.21 8.29,10.7 12.43,13.46 98.38,73.87 152.22,190.54 161.55,350.02l0 74.56c24.85,-11.05 41.42,-18.99 49.71,-24.51 32.1,-18.29 67.65,-46.94 105.97,-85.6 5.52,-7.6 13.81,-18.3 25.2,-32.45l2.53 -3.14c-4.22,-19.79 -6.33,-39.8 -6.33,-60.03 0,-50.05 15.19,-96.64 45.22,-140.48 30.38,-43.5 70.43,-75.95 120.12,-97.34 29,-11.39 58,-17.61 87.68,-18.3 18.3,0 36.59,2.42 55.58,7.25 49.01,11.74 90.43,36.59 124.96,75.26 26.23,28.64 44.87,57.65 56.26,86.29 5.52,11.05 8.29,23.47 8.29,37.28 0,9.32 -1.38,19.68 -4.14,31.07 -4.83,21.41 -17.26,34.86 -37.28,40.38 -20.37,5.87 -38.32,1.38 -53.5,-13.46 -0.69,-0.69 -11.04,-13.12 -31.41,-36.94 -18.99,-31.76 -51.09,-50.74 -95.96,-57.3 -5.52,-1.38 -11.39,-2.08 -17.26,-2.08 -23.47,0 -46.59,9.32 -69.38,28.31 -11.39,13.46 -17.26,26.92 -17.26,40.03 0,6.91 1.39,13.47 4.14,20.37 16.91,35.55 32.11,58.68 46.6,69.39 49.7,36.24 109.76,75.59 179.84,118.05 9.31,5.18 21.4,5.18 35.55,0 99.76,-45.22 178.81,-93.2 237.48,-144.29 21.63,-16.08 36.57,-26.81 44.84,-32.21 -15.17,-131.95 -22.74,-262.38 -22.74,-391.33 0,-79.04 2.77,-157.05 8.64,-234.03 1.38,-32.11 8.97,-89.06 23.12,-170.52 3.79,-16.91 14.16,-41.42 31.41,-73.52 17.95,-27.28 42.11,-41.42 72.14,-42.11 0.69,0 1.39,0 2.08,0 28.99,0 53.5,13.46 72.83,40.38 16.57,19.33 27.27,40.73 32.45,63.52 12.77,58.67 20.37,111.84 22.78,159.47 2.07,56.61 3.79,117.02 5.17,181.22 1.39,64.21 2.42,135.32 3.8,213.67 1.38,78.01 2.42,138.42 3.1,181.56 0,8.63 0.35,21.06 1.04,37.28 0.69,16.22 1.03,27.27 1.03,33.49 2.77,2.42 6.22,3.79 10.01,3.79 2.08,-3.79 5.52,-10.7 9.66,-20.71 4.49,-9.66 7.6,-16.57 9.66,-20.72 34.86,-77.32 74.56,-141.87 119.09,-193.65 37.28,-45.91 79.05,-80.43 125.31,-103.9 25.2,-12.08 48.67,-18.29 70.07,-18.29 13.47,0 26.24,2.42 38.32,6.9 32.11,12.43 55.92,39.01 71.11,80.08 15.52,39.01 23.12,78.36 23.12,118.06 0,37.62 -6.9,75.94 -21.06,114.94 -28.3,74.21 -73.87,147.05 -136.35,219.19 -3.79,5.17 -8.63,11.04 -14.5,17.6 -5.87,6.21 -12.43,13.46 -19.68,21.06 -7.25,7.94 -12.77,13.81 -16.22,17.6l-74.21 65.93c7.94,17.26 17.25,34.51 27.27,50.74 10.01,16.57 24.16,35.56 42.46,57.31 18.29,21.4 40.03,39.01 65.58,52.46 25.89,13.46 53.15,20.37 82.16,21.06l4.13 0c39.71,0 92.51,-40.38 158.1,-121.5 51.93,-64.23 101.68,-149.45 148.94,-255.64 -45.4,-21.69 -81.96,-51.51 -109.59,-89.53 -26.93,-36.94 -40.38,-78.7 -40.38,-125.31 0,-28.3 4.83,-57.99 14.15,-89.74 34.52,-103.55 96.31,-171.9 186.06,-204.01 22.78,-10 54.54,-15.19 94.93,-15.19 34.51,0.69 62.82,12.08 84.91,33.83 22.09,21.75 35.55,50.06 39.36,84.23 1.38,10 2.07,21.06 2.07,32.45 0,25.54 -2.77,54.88 -7.94,87.67 -3.45,19.68 -10.35,46.95 -21.06,82.51 -11.05,35.2 -16.91,55.23 -18.3,59.71 -0.69,0.69 -4.14,10.7 -10,29.34 10,1.38 25.89,3.79 47.28,7.25 21.75,3.45 38.67,5.52 51.09,6.9 12.43,1.39 27.62,2.08 45.23,2.08 17.6,0 33.83,-1.38 48.67,-4.14 7.94,-1.04 16.22,-1.73 24.16,-1.73 28.64,0 52.81,8.63 73.18,26.24 24.85,21.4 37.62,50.74 37.62,87.68 0,2.07 0,4.14 0,6.21 0,7.94 -1.04,16.22 -2.76,24.51 -1.73,8.63 -4.14,17.95 -6.91,28.99 -3.1,10.7 -5.52,18.29 -6.56,23.12 -44.88,131.87 -98.72,253.72 -162.58,365.56 -36.94,67.31 -64.89,138.76 -82.85,215.04 -4.14,14.85 -6.56,28.65 -6.91,41.42 -0.34,12.78 2.08,24.51 6.91,35.56 4.48,-3.45 11.04,-7.6 18.98,-12.78 8.29,-5.17 15.2,-9.66 21.41,-14.15 6.21,-4.49 11.39,-8.64 16.22,-12.77 56.96,-47.64 101.14,-101.15 132.89,-159.48 37.28,-64.55 82.16,-149.47 134.97,-254.4 3.79,-8.29 18.98,-43.49 45.56,-106.67 26.24,-62.82 51.44,-123.92 75.6,-182.94l17.22 -42.87c2.11,-15.54 4.54,-31.06 7.29,-46.53 2.08,-23.12 10.35,-49.36 24.16,-79.04 12.78,-26.24 29.69,-45.92 50.4,-59.37 17.95,-11.39 37.63,-17.26 58.34,-17.26 3.1,0 6.22,0 8.98,0 23.47,3.45 44.19,13.47 62.14,30.38 18.29,16.91 30.37,39.7 36.24,68.69 8.63,33.83 13.12,64.55 13.12,92.86 -1.73,28.99 -5.52,72.48 -11.05,130.48 -5.17,57.99 -8.98,101.49 -10.69,130.48 -0.7,11.39 -4.49,59.71 -11.39,145.32 0,21.06 1.38,35.55 4.13,43.49 0.7,7.6 2.43,13.81 5.87,19.33 3.45,5.18 8.98,9.66 17.26,13.46 7.94,3.8 18.64,1.04 32.1,-8.63l2.08 0c2.76,-1.38 4.83,-3.1 6.21,-5.87 1.04,0 2.42,-0.34 3.79,-1.03 1.39,-0.7 2.43,-1.04 3.11,-1.04l10 -10.01 14.16 -14.15c38.66,-38.67 83.53,-97.69 134.62,-178.12 27.62,-43.49 55.23,-91.12 82.5,-141.87 26.99,-50.22 47.21,-89.95 60.68,-118.88 4.12,-41.84 10.59,-84.12 19.4,-126.89 2.08,-19.33 8.29,-37.62 18.99,-54.53 17.26,-39.01 43.15,-58.34 77.66,-58.34 3.45,0 6.56,0.34 10.01,1.03 18.64,3.1 34.51,11.39 47.28,24.51 13.12,13.12 21.41,30.72 25.55,52.13 4.48,29.68 6.9,54.19 6.9,73.87l0 265.44 0 49.71c-1.38,16.22 -1.38,24.85 0,26.24 0.7,0.69 2.08,-0.69 4.49,-3.45 2.42,-3.1 5.52,-7.6 9.31,-13.81 3.45,-5.87 7.26,-12.43 11.05,-19.33 3.79,-6.56 8.29,-14.16 13.81,-23.13 5.17,-8.63 10.35,-16.56 15.19,-23.12 2.08,-3.45 5.18,-8.29 8.98,-14.16 4.14,-6.21 7.25,-10.69 9.32,-14.15l2.07 0c89.74,-124.62 143.6,-199.18 161.89,-223.34 47.29,-61.79 98.38,-110.46 153.95,-145.32 33.15,-22.43 62.14,-38.31 86.99,-47.63 19.68,-7.94 38.32,-12.08 56.61,-12.08 14.85,-0.69 29,1.73 42.46,7.25 31.07,10.7 54.54,33.14 70.08,67.66 18.64,39.01 31.41,78 37.28,117.36 2.76,17.26 4.14,37.63 4.14,60.4 0,45.92 -5.53,101.83 -16.22,168.11 -8.64,41.77 -20.72,104.94 -35.9,190.2 -15.19,84.91 -26.93,148.08 -34.86,189.84 -1.38,6.91 -2.42,13.81 -3.1,20.72 -0.69,7.25 -1.39,14.85 -2.08,22.78 -0.69,8.29 -1.04,14.5 -1.04,19.33l2.08 0c40.38,-40.38 93.89,-119.09 160.86,-235.76 66.61,-116.67 131.51,-245.43 193.98,-386.26 6.22,-15.53 17.61,-26.58 33.84,-32.45 16.56,-6.21 33.83,-5.52 51.09,2.08 15.52,5.86 25.89,17.25 31.41,33.83 5.52,16.22 5.18,33.49 -1.04,51.09 -0.69,0.34 -8.29,16.91 -22.78,48.67 -14.5,32.1 -35.2,75.6 -62.48,130.82 -27.27,55.23 -54.88,108.04 -82.5,157.75 -100.45,186.06 -182.94,301.69 -247.84,347.6 -28.3,29.69 -61.1,46.25 -98.03,50.4 -6.91,0.69 -13.12,1.38 -19.34,2.08 -29.33,0 -57.3,-8.64 -83.53,-26.24 -31.75,-21.06 -53.84,-50.4 -66.61,-89.06 -16.22,-39.7 -24.17,-83.19 -24.17,-130.14 -2.07,-33.83 -3.1,-66.62 -3.1,-99.07 0,-156.37 21.41,-303.07 64.21,-440.44 0,-1.39 0.69,-6.91 2.07,-16.22 1.39,-9.32 3.45,-18.64 5.87,-27.28l-36.24 36.25c-71.45,81.11 -138.76,176.38 -201.58,286.16 -6.56,12.08 -16.57,30.03 -29.34,53.5 -12.78,23.47 -24.51,45.22 -35.21,64.55 -10.7,19.68 -21.74,37.28 -32.45,53.5 -13.46,26.24 -33.14,51.44 -58.68,74.91 -23.47,22.08 -49.36,33.14 -77.66,33.14 -4.14,0 -7.94,0 -12.08,0 -32.45,-3.79 -59.37,-21.41 -80.77,-52.46 -17.26,-24.17 -30.03,-52.47 -38.67,-84.92 -11.52,-41.71 -20.37,-84.03 -26.52,-126.89 -14.27,24.49 -28.25,48.03 -41.82,70.29 -11.05,19.33 -22.78,36.59 -35.55,51.44 -33.84,54.53 -69.73,105.62 -108.04,153.6 -33.83,42.46 -71.1,75.6 -111.5,99.07 -32.1,18.29 -62.82,27.27 -91.47,27.27 -44.18,0 -83.87,-21.06 -119.78,-62.48 -39.7,-43.14 -66.27,-94.92 -79.05,-154.64 -7.67,-32.39 -13.96,-64.69 -18.9,-96.94 -11.15,25.24 -22.45,50.2 -33.91,74.85 -104.93,223.69 -201.93,374.87 -290.99,453.57 -22.78,22.78 -44.53,40.04 -64.55,51.44 -33.84,21.74 -68,32.45 -103.21,32.45 -15.19,-0.7 -31.07,-3.11 -47.29,-6.91 -51.78,-13.81 -90.78,-45.57 -116.32,-95.96 -22.78,-44.53 -35.21,-97.33 -37.28,-158.78 -0.69,-11.39 -1.04,-22.78 -1.04,-34.17 0,-161.2 39.35,-313.42 118.05,-456.67 29.34,-54.54 48.67,-90.09 57.31,-107.01 -16.36,-3.38 -50.92,-9.53 -103.49,-18.64 -11.68,25.08 -28.3,60.27 -50.81,104.93 -22.78,46.25 -47.63,88.37 -74.21,126.68 -26.59,38.66 -55.92,76.29 -88.03,113.57 -32.1,37.62 -66.96,66.96 -104.59,88.37 -37.97,21.74 -75.25,32.45 -112.19,32.45l-4.13 0c-41.08,-0.69 -79.74,-7.94 -115.29,-22.09 -35.9,-14.15 -66.28,-33.14 -91.82,-56.61 -25.2,-23.47 -46.25,-46.6 -62.83,-69.38 -16.56,-22.44 -31.41,-46.25 -44.18,-71.11l-12.43 12.08 -12.08 9.32c-12.77,12.77 -19.33,28.99 -19.33,49.36 0,12.77 -0.69,31.07 -2.07,54.88 -1.39,23.82 -2.08,42.11 -2.08,54.19l0 40.04c-6.21,30.03 -20.37,52.46 -42.46,66.62 -13.11,8.98 -27.27,13.46 -42.45,13.46 -9.32,0 -19.33,-2.07 -30.03,-6.21 -25.89,-9.32 -44.88,-27.27 -56.96,-53.5 -8.98,-15.53 -17.26,-37.28 -24.85,-64.89 -37.72,-140.42 -67.39,-279.23 -89.01,-416.4l-75.65 47.4c-57.31,35.9 -101.15,63.17 -132.21,81.12 0,3.45 -2.08,7.25 -6.22,11.04l18.3 30.38c43.84,76.63 65.58,153.6 65.58,231.61 0,62.48 -14.16,125.65 -42.46,189.51 -45.22,93.89 -114.94,145.66 -209.18,154.98 -11.04,1.39 -21.41,2.08 -31.41,2.08 -39.36,0 -75.95,-8.98 -110.46,-27.27 -43.84,-22.78 -78.35,-56.96 -103.21,-102.87 -25.2,-45.56 -37.62,-91.47 -37.62,-138.07 0,-32.8 6.56,-65.93 19.33,-99.76 18.64,-58.34 47.63,-114.25 86.99,-167.07 1.03,-1.39 4.48,-6.91 9.66,-16.22 5.52,-9.32 10,-16.57 14.15,-21.06l-28.3 -28.3c-8.63,-9.32 -21.4,-23.13 -37.62,-40.73 -16.57,-17.95 -31.76,-34.17 -45.57,-49.02 -11.1,-11.92 -21.08,-23.41 -29.95,-34.44l-3.18 3.72c-23.47,26.58 -47.98,51.78 -73.87,75.25 -25.89,23.47 -57.65,45.92 -94.58,67.31 -36.94,21.41 -73.87,35.55 -110.12,43.15 -1.38,2.08 -4.83,8.63 -10,19.33 -22.44,73.18 -55.23,131.87 -99.07,176.39 -36.59,37.97 -70.08,66.62 -100.45,86.29 -38.32,26.59 -78.36,40.04 -119.44,40.04 -37.62,0 -76.29,-11.74 -115.98,-34.86 -99.07,-56.61 -149.47,-143.25 -151.53,-259.93 0,-24.16 4.48,-66.96 13.12,-129.09 0.23,-2.68 0.37,-5.29 0.44,-7.83l-1.14 2.3c-27.27,55.23 -54.88,108.04 -82.5,157.75 -100.45,186.06 -182.94,301.69 -247.84,347.6 -28.3,29.69 -61.1,46.25 -98.03,50.4 -6.91,0.69 -13.12,1.38 -19.34,2.08 -29.33,0 -57.3,-8.64 -83.53,-26.24 -31.75,-21.06 -53.84,-50.4 -66.61,-89.06 -16.22,-39.7 -24.17,-83.19 -24.17,-130.14 -2.07,-33.83 -3.1,-66.62 -3.1,-99.07 0,-156.37 21.41,-303.07 64.21,-440.44 0,-1.39 0.69,-6.91 2.07,-16.22 1.39,-9.32 3.45,-18.64 5.87,-27.28l-36.24 36.25c-71.45,81.11 -138.76,176.38 -201.58,286.16 -6.56,12.08 -16.57,30.03 -29.34,53.5 -12.78,23.47 -24.51,45.22 -35.21,64.55 -10.7,19.68 -21.74,37.28 -32.45,53.5 -13.46,26.24 -33.14,51.44 -58.68,74.91 -23.47,22.08 -49.36,33.14 -77.66,33.14 -4.14,0 -7.94,0 -12.08,0 -32.45,-3.79 -59.37,-21.41 -80.77,-52.46 -17.26,-24.17 -30.03,-52.47 -38.67,-84.92 -19.55,-70.79 -31.42,-143.36 -35.41,-217.32 -7.08,6.87 -14.25,13.61 -21.54,20.22 -25.89,23.47 -57.65,45.92 -94.58,67.31 -36.94,21.41 -73.87,35.55 -110.12,43.15 -1.38,2.08 -4.83,8.63 -10,19.33 -22.44,73.18 -55.23,131.87 -99.07,176.39 -36.59,37.97 -70.08,66.62 -100.45,86.29 -38.32,26.59 -78.36,40.04 -119.44,40.04 -37.62,0 -76.29,-11.74 -115.98,-34.86 -99.07,-56.61 -149.47,-143.25 -151.53,-259.93 0,-24.16 4.48,-66.96 13.12,-129.09 1.43,-16.96 -0.28,-31.11 -5.01,-42.45 -53.29,82.55 -113.53,162.56 -180.7,239.89 -13.46,17.6 -28.65,32.11 -45.57,43.5 -28.3,22.43 -57.65,33.48 -88.71,33.48 -6.22,0.69 -12.43,0.35 -19.34,-1.03 -37.62,-5.53 -69.04,-26.59 -94.58,-63.87 -24.51,-32.79 -39.01,-74.9 -43.49,-126.33 -2.08,-26.93 -3.11,-54.88 -3.11,-83.87 0,-62.14 5.53,-128.07 16.92,-197.1 3.79,-20.72 10.35,-59.03 19.67,-114.95l19.68 -114.59c3.45,-20.72 10.7,-63.52 21.74,-128.76 11.05,-64.89 19.68,-115.28 25.89,-150.5 1.39,-4.14 3.1,-11.04 4.83,-20.71 2.08,-9.67 3.8,-16.57 5.18,-20.72 -5.52,-2.77 -8.63,-4.83 -10.01,-6.21 -2.76,4.14 -7.25,10.35 -13.46,18.29 -6.56,8.29 -11.04,14.16 -13.81,18.3 -140.83,194.68 -246.46,418.01 -317.22,669.3 -22.09,72.83 -46.94,155.68 -74.21,248.88 -7.25,22.09 -18.3,46.94 -33.14,73.87 -22.44,34.86 -52.47,52.47 -90.09,52.47 -0.7,0 -1.73,0 -3.11,0 -38.66,-0.7 -68.34,-19.68 -89.06,-56.62 -17.25,-31.75 -28.3,-58.67 -32.79,-80.77 -22.44,-60.75 -36.94,-143.95 -43.5,-249.91 -1.73,-33.83 -2.42,-67.65 -2.42,-102.17 0,-107.01 7.6,-218.16 22.78,-332.76 3.1,-23.47 13.47,-120.81 31.07,-292.02 1.38,-4.83 2.07,-10.01 2.07,-16.22 0,-5.87 -0.34,-13.47 -1.03,-22.09 -0.7,-8.98 -1.04,-16.22 -1.04,-22.43 -12.43,12.42 -19.68,22.08 -21.06,29.33 -137.39,212.3 -220.92,413.19 -250.95,602.69 -8.28,41.07 -12.42,105.28 -12.42,192.27 -7.95,133.93 -12.43,247.84 -13.81,341.73 0,2.07 -2.08,17.25 -6.22,45.56 -12.42,36.25 -36.59,56.62 -71.79,60.41 -17.95,1.38 -33.83,-2.42 -48.33,-12.08 -14.5,-9.32 -24.85,-23.13 -30.72,-41.42 -8.63,-20.02 -12.77,-36.94 -12.77,-50.4 -26.24,-208.49 -56.61,-470.14 -91.13,-784.94 -6.55,-61.44 -18.98,-180.53 -38.31,-357.61zm6949.21 163.61c0,-2.07 0,-3.79 0,-5.87 -0.69,-27.27 6.91,-51.43 23.13,-72.83 17.6,-22.43 40.03,-35.89 67.65,-39.7 6.56,-1.38 13.12,-2.07 18.99,-2.07 21.06,0 39.7,5.87 56.61,17.95 22.09,15.19 36.93,37.28 44.53,65.58 5.87,24.16 10.01,38.32 12.08,43.15 4.49,12.42 6.91,24.5 6.91,35.55 0,15.53 -4.83,29.68 -14.16,43.15 -14.85,20.36 -37.28,30.72 -67.31,30.72 -2.76,0 -5.52,0 -8.29,0 -39.7,0 -72.14,-10.36 -97.68,-30.72 -25.55,-20.72 -39.7,-49.02 -42.46,-84.92zm-800.13 296.17c4.83,27.62 20.02,44.19 45.22,49.36 45.22,-78.01 67.66,-149.12 67.66,-212.97 -4.14,0.69 -7.95,1.04 -12.09,1.04 -3.79,0 -6.9,0.34 -8.98,1.03 -27.27,12.08 -50.39,34.86 -69.38,68.7 -15.53,28.3 -23.47,54.19 -23.47,77.66 0,5.52 0.35,10.35 1.04,15.19zm-644.11 303.07l17.26 0c89.06,-62.48 159.82,-139.1 212.97,-230.24 20.37,-36.93 30.38,-74.9 30.38,-113.9 0,-3.45 0,-6.91 0,-10.01 0,-24.16 -7.6,-46.94 -22.44,-67.66 -31.06,27.62 -59.02,57.31 -83.53,89.75 -24.5,32.45 -46.25,69.04 -66.27,110.11 -19.68,41.07 -34.86,75.6 -45.57,103.55 -11.04,27.96 -25.2,67.31 -42.8,118.4zm-849.15 385.22c-1.38,6.56 -2.08,13.12 -2.08,20.03 0,24.85 8.29,48.67 24.51,72.14 13.12,23.47 33.84,35.2 62.48,35.2 2.08,0 4.14,0 6.91,0 26.58,-5.87 43.49,-22.78 50.05,-50.05 6.21,-37.63 9.31,-68.35 9.31,-92.51 0,-7.94 -0.34,-15.53 -1.03,-22.09 -2.08,-51.43 -25.2,-99.07 -69.39,-142.56 -43.84,69.04 -70.42,128.75 -80.77,179.84zm-792.19 -235.76c-2.76,13.46 -4.14,26.24 -4.14,38.66 0,35.21 12.43,63.52 37.63,84.57 12.77,10.01 25.2,14.16 37.28,12.08 21.74,-2.76 45.57,-17.26 71.79,-43.84 26.59,-26.58 41.77,-50.74 45.57,-73.18 -61.79,-6.21 -124.61,-12.42 -188.12,-18.29zm18.3 -162.93c31.06,13.46 72.14,23.82 123.23,30.37 23.81,2.77 44.87,4.49 62.82,5.18 21.06,0 38.67,-2.07 52.81,-6.21 9.32,-31.07 14.16,-62.83 14.16,-94.93 0,-32.45 -4.83,-65.58 -14.16,-99.42 -18.99,-68 -48.67,-111.84 -89.06,-131.51 -33.83,35.55 -65.58,82.15 -95.28,140.14 -29.68,57.99 -47.97,110.11 -54.53,156.37zm-2019.67 162.93c-2.76,13.46 -4.14,26.24 -4.14,38.66 0,35.21 12.43,63.52 37.63,84.57 12.77,10.01 25.2,14.16 37.28,12.08 21.74,-2.76 45.57,-17.26 71.79,-43.84 26.59,-26.58 41.77,-50.74 45.57,-73.18 -61.79,-6.21 -124.61,-12.42 -188.12,-18.29zm18.3 -162.93c31.06,13.46 72.14,23.82 123.23,30.37 23.81,2.77 44.87,4.49 62.82,5.18 21.06,0 38.67,-2.07 52.81,-6.21 9.32,-31.07 14.16,-62.83 14.16,-94.93 0,-32.45 -4.83,-65.58 -14.16,-99.42 -18.99,-68 -48.67,-111.84 -89.06,-131.51 -33.83,35.55 -65.58,82.15 -95.28,140.14 -29.68,57.99 -47.97,110.11 -54.53,156.37z" />
    <path fill="#888888" d="M4231.49 2323.73l-4.52 0 -73.59 162.67 -25.82 0 -73.58 -162.67 -4.52 0 -24.53 162.67 -82.63 0 58.1 -329.21 41.96 0 98.76 198.17 3.22 0 94.25 -198.17 41.95 0 58.1 329.21 -82.62 0 -24.53 -162.67zm4421.71 0l-4.52 0 -73.59 162.67 -25.82 0 -73.58 -162.67 -4.52 0 -24.53 162.67 -82.63 0 58.1 -329.21 41.96 0 98.76 198.17 3.22 0 94.25 -198.17 41.95 0 58.1 329.21 -82.62 0 -24.53 -162.67zm-365.36 1.29c0,46.91 -16.14,86.61 -48.41,119.1 -32.28,32.49 -74.02,48.74 -125.23,48.74 -50.36,0 -92.1,-16.14 -125.24,-48.42 -33.13,-32.27 -49.7,-72.07 -49.7,-119.42 0,-50.35 17.32,-91.44 51.97,-123.29 34.64,-31.85 75.63,-47.76 122.97,-47.76 46.9,0 87.57,15.81 121.99,47.44 34.43,31.63 51.65,72.83 51.65,123.61zm-85.85 -1.29c0,-27.97 -8.61,-51 -25.83,-69.07 -17.21,-18.07 -38.08,-27.12 -62.61,-27.12 -23.67,0 -44.22,8.72 -61.65,26.15 -17.42,17.43 -26.14,40.77 -26.14,70.04 0,26.68 7.85,49.27 23.56,67.78 15.7,18.5 37.76,27.75 66.16,27.75 24.53,0 45.08,-8.61 61.64,-25.82 16.57,-17.21 24.86,-40.45 24.86,-69.72zm-354.38 67.13l3.22 0 24.53 62.62c-33.99,26.25 -75.96,39.38 -125.88,39.38 -50.78,0 -92.09,-16.03 -123.94,-48.09 -31.84,-32.06 -47.76,-71.33 -47.76,-117.81 0,-52.49 17.43,-94.46 52.29,-125.88 34.85,-31.41 76.17,-47.11 123.94,-47.11 49.06,0 89.5,13.55 121.35,40.66l-25.18 64.55 -2.58 0c-24.96,-21.52 -55.95,-32.06 -92.96,-31.63 -24.95,0.43 -46.25,9.15 -63.9,26.15 -17.65,16.99 -26.47,40.98 -26.47,71.97 0,29.26 8.61,52.18 25.82,68.75 17.21,16.56 39.6,24.85 67.13,24.85 32.28,0 62.4,-9.46 90.37,-28.4zm-456.7 85.53c-9.68,-9.68 -14.53,-21.42 -14.53,-35.18 0,-13.77 4.84,-25.5 14.53,-35.18 9.68,-9.67 21.42,-14.52 35.18,-14.52 13.77,0 25.5,4.84 35.18,14.52 9.67,9.68 14.52,21.42 14.52,35.18 0,13.77 -4.84,25.5 -14.52,35.18 -9.68,9.68 -21.42,14.53 -35.18,14.53 -13.77,0 -25.5,-4.84 -35.18,-14.53zm-395.37 -315.98l175.57 184.62 3.22 0 0 -184.62 83.91 0 0 325.98 -53.57 0 -175.57 -185.26 -3.22 0 0 185.26 -83.92 0 0 -325.98 53.58 0zm-163.31 0l0 325.98 -83.91 0 0 -325.98 83.91 0zm-264.01 191.72l0 2.58 99.41 128.46 0 3.22 -99.41 0 -89.08 -125.88 -8.39 0 0 125.88 -83.92 0 0 -325.98 129.75 0c36.58,0 66.27,9.79 89.08,29.37 22.81,19.58 34.21,45.3 34.21,77.13 0,20.66 -6.24,38.41 -18.72,53.25 -12.48,14.85 -30.12,25.5 -52.93,31.96zm-29.36 -58.1c7.53,-6.46 11.29,-15.49 11.29,-27.12 0,-11.61 -3.98,-20.76 -11.94,-27.44 -7.96,-6.67 -18.18,-10 -30.66,-10l-36.79 0 0 74.24 38.73 0c12.05,0 21.83,-3.23 29.37,-9.68zm-427.65 69.72l-1.94 0 0 122.64 -83.92 0 0 -325.98 83.92 0 0 131.69 1.94 0 107.15 -131.69 94.9 0 0 3.22 -134.27 158.8 145.24 160.73 0 3.22 -102.63 0 -110.38 -122.64zm-435.72 91.66l23.24 -67.78c35.71,22.8 70.36,34.2 103.92,34.2 14.2,0 24.85,-2.58 31.95,-7.74 7.11,-5.17 10.65,-11.41 10.65,-18.72 0,-11.62 -17.42,-25.39 -52.29,-41.31 -4.73,-2.16 -8.39,-3.87 -10.97,-5.17 -34.42,-16.34 -58.63,-31.73 -72.62,-46.15 -13.98,-14.42 -20.98,-32.82 -20.98,-55.19 0,-25.39 10.54,-47.34 31.63,-65.84 21.09,-18.51 50.57,-27.75 88.44,-27.75 43.89,0 82.2,10.32 114.9,30.98l-19.37 67.13c-33.99,-18.07 -65.62,-27.11 -94.89,-27.11 -11.62,0 -20.45,2.15 -26.47,6.45 -6.03,4.3 -9.04,9.68 -9.04,16.14 0,6.45 4.08,12.48 12.26,18.07 8.18,5.59 25.39,14.42 51.64,26.47 34.86,16.35 59.39,32.6 73.59,48.73 14.2,16.14 21.31,35.61 21.31,58.43 0,29.69 -12.27,52.71 -36.8,69.07 -24.53,16.35 -56.8,24.53 -96.82,24.53 -26.25,0 -50.67,-3.77 -73.26,-11.3 -22.59,-7.53 -39.27,-16.24 -50.03,-26.14zm-72.94 -130.4c0,46.91 -16.14,86.61 -48.41,119.1 -32.28,32.49 -74.02,48.74 -125.23,48.74 -50.36,0 -92.1,-16.14 -125.24,-48.42 -33.13,-32.27 -49.7,-72.07 -49.7,-119.42 0,-50.35 17.32,-91.44 51.97,-123.29 34.64,-31.85 75.63,-47.76 122.97,-47.76 46.9,0 87.57,15.81 121.99,47.44 34.43,31.63 51.65,72.83 51.65,123.61zm-85.85 -1.29c0,-27.97 -8.61,-51 -25.83,-69.07 -17.21,-18.07 -38.08,-27.12 -62.61,-27.12 -23.67,0 -44.22,8.72 -61.65,26.15 -17.42,17.43 -26.14,40.77 -26.14,70.04 0,26.68 7.85,49.27 23.56,67.78 15.7,18.5 37.76,27.75 66.16,27.75 24.53,0 45.08,-8.61 61.64,-25.82 16.57,-17.21 24.86,-40.45 24.86,-69.72zm-612.58 -163.31l175.57 184.62 3.22 0 0 -184.62 83.91 0 0 325.98 -53.57 0 -175.57 -185.26 -3.22 0 0 185.26 -83.92 0 0 -325.98 53.58 0zm-140.72 164.6c0,46.91 -16.14,86.61 -48.41,119.1 -32.28,32.49 -74.02,48.74 -125.23,48.74 -50.36,0 -92.1,-16.14 -125.24,-48.42 -33.13,-32.27 -49.7,-72.07 -49.7,-119.42 0,-50.35 17.32,-91.44 51.97,-123.29 34.64,-31.85 75.63,-47.76 122.97,-47.76 46.9,0 87.57,15.81 121.99,47.44 34.43,31.63 51.65,72.83 51.65,123.61zm-85.85 -1.29c0,-27.97 -8.61,-51 -25.83,-69.07 -17.21,-18.07 -38.08,-27.12 -62.61,-27.12 -23.67,0 -44.22,8.72 -61.65,26.15 -17.42,17.43 -26.14,40.77 -26.14,70.04 0,26.68 7.85,49.27 23.56,67.78 15.7,18.5 37.76,27.75 66.16,27.75 24.53,0 45.08,-8.61 61.64,-25.82 16.57,-17.21 24.86,-40.45 24.86,-69.72z" />
    <rect fill="#888888" x="1.16" y="2153.81" width="3688.38" height="338.45" />
</svg>