<?xml version="1.0" encoding="UTF-8"?>
<!DOCTYPE svg PUBLIC "-//W3C//DTD SVG 1.1//EN" "http://www.w3.org/Graphics/SVG/1.1/DTD/svg11.dtd">
<!-- Creator: CorelDRAW 2020 (64-Bit) -->
<svg xmlns="http://www.w3.org/2000/svg" xml:space="preserve" width="195.415mm" height="86.153mm" version="1.1" style="shape-rendering:geometricPrecision; text-rendering:geometricPrecision; image-rendering:optimizeQuality; fill-rule:evenodd; clip-rule:evenodd"
viewBox="0 0 19527.25 8609.03"
 xmlns:xlink="http://www.w3.org/1999/xlink"
 xmlns:xodm="http://www.corel.com/coreldraw/odm/2003">
 <defs>
  <style type="text/css">
   <![CDATA[
    .fil0 {fill:black}
   ]]>
  </style>
 </defs>
 <g id="Layer_x0020_1">
  <metadata id="CorelCorpID_0Corel-Layer"/>
  <path class="fil0" d="M3.73 721.14l0 -335.06c0,-84.69 9.97,-156.92 29.92,-215.47 43.59,-94.66 118.3,-149.46 224.18,-166.9 19.95,-2.48 38.61,-3.73 56.04,-3.73 75.99,0 140.77,31.13 195.57,94.66 63.53,73.48 107.11,165.65 130.75,276.5 43.62,211.75 69.78,394.82 82.24,550.53 19.92,350 43.58,856.91 73.47,1523.25 0,64.77 4.98,119.57 14.95,163.16 7.48,-4.97 16.18,-9.94 27.4,-16.19 11.21,-6.21 19.95,-11.21 24.91,-16.18 6.22,-4.98 12.46,-11.22 17.43,-18.68 372.43,-394.85 673.84,-783.44 903.01,-1165.83 241.63,-366.18 384.85,-713.66 428.47,-1041.23 4.98,-7.48 12.46,-37.37 22.4,-90.92 46.1,-102.15 127.06,-156.96 241.63,-164.41 13.7,-2.52 27.4,-3.76 39.86,-3.76 97.14,0 168.13,48.58 211.75,145.73 34.85,87.21 51.04,169.41 51.04,244.12 0,22.42 -1.24,42.34 -2.49,62.28 -27.4,196.78 -64.77,359.94 -114.57,491.97 -92.18,296.43 -274.01,624.01 -544.29,983.97 -19.95,21.15 -49.82,54.8 -88.45,100.87 -38.61,47.35 -68.5,80.96 -87.17,102.15 138.24,206.75 252.82,424.72 343.75,652.65 89.68,227.93 178.1,495.73 262.79,802.11 203.02,718.66 328.84,1083.6 377.4,1096.05 17.46,2.49 43.62,-9.96 80.96,-36.09 36.13,-27.4 90.93,-84.72 161.92,-173.13 72.26,-88.45 150.7,-203.02 236.66,-341.27 25.42,-41.33 49.8,-82.35 73.16,-123 76.39,-624.45 350.06,-1136.48 821.1,-1536.04 246.63,-209.24 513.16,-313.86 799.62,-313.86 188.08,0 384.89,46.07 590.39,137 56.05,26.16 134.52,78.47 236.64,156.95 100.9,78.44 159.43,122.06 174.37,132 2.52,-4.97 6.25,-12.46 12.46,-23.64 6.25,-11.21 12.45,-22.43 19.95,-33.65 7.45,-12.46 14.94,-23.67 24.91,-32.37 61.02,-92.18 138.25,-138.28 232.9,-138.28 18.68,0 38.62,1.27 57.29,3.76 128.31,24.91 209.24,97.15 244.12,216.72 13.7,46.07 21.18,92.17 21.18,137 0,36.13 -5,70.99 -13.7,104.63 -18.7,125.79 -57.31,305.14 -113.36,538.04 -188.07,611.54 -316.35,1036.29 -383.61,1277.93 -33.65,107.11 -63.53,270.27 -92.17,491.96 -11.21,37.37 -17.43,90.93 -17.43,164.41 14.94,-12.46 33.62,-26.16 56.04,-42.35 23.67,-14.94 42.35,-29.88 57.29,-41.1 14.95,-12.45 26.16,-24.91 36.13,-37.37 36.12,-43.59 92.17,-108.36 168.13,-194.29 74.75,-87.21 132.03,-153.19 171.89,-199.29 277.8,-365.14 578.73,-844.1 903.75,-1435.07 14.79,-155.91 38.61,-313.57 71.49,-473.06 7.45,-69.75 29.89,-135.76 68.5,-196.78 62.26,-140.77 155.68,-210.51 280.23,-210.51 12.45,0 23.67,1.24 36.12,3.73 67.26,11.21 124.55,41.1 170.66,88.45 47.32,47.32 77.19,110.84 92.14,188.07 16.22,107.12 24.91,195.54 24.91,266.56l0 957.78 0 179.37c-4.97,58.54 -4.97,89.66 0,94.66 2.52,2.49 7.48,-2.51 16.22,-12.45 8.69,-11.22 19.92,-27.4 33.62,-49.83 12.45,-21.18 26.15,-44.83 39.85,-69.75 13.71,-23.67 29.89,-51.07 49.83,-83.44 18.68,-31.16 37.34,-59.81 54.8,-83.48 7.46,-12.42 18.68,-29.88 32.38,-51.04 14.94,-22.42 26.16,-38.61 33.65,-51.07l7.45 0c323.83,-449.62 518.12,-718.66 584.14,-805.86 170.65,-222.94 354.96,-398.55 555.5,-524.34 119.58,-80.96 224.21,-138.28 313.87,-171.89 71.02,-28.64 138.28,-43.59 204.29,-43.59 53.56,-2.49 104.6,6.22 153.19,26.16 112.09,38.61 196.78,119.57 252.86,244.12 67.25,140.73 113.33,281.5 134.48,423.46 9.97,62.29 14.98,135.76 14.98,217.97 0,165.64 -19.95,367.42 -58.57,606.57 -31.13,150.71 -74.72,378.64 -129.52,686.29 -54.8,306.38 -97.14,534.32 -125.82,685.02 -4.97,24.91 -8.69,49.83 -11.18,74.75 -2.52,26.16 -5.01,53.56 -7.48,82.2 -2.49,29.89 -3.73,52.31 -3.73,69.75l7.45 0c145.73,-145.73 338.77,-429.72 580.42,-850.7 217.45,-380.79 429.77,-797.28 635.19,-1249.42 12.33,-55.93 25.62,-111.5 39.88,-166.75 21.19,-87.17 52.32,-178.1 92.17,-272.76 36.13,-75.95 66.02,-120.82 89.69,-135.76 69.74,-87.18 144.48,-130.76 226.69,-130.76 31.13,0 64.74,6.22 98.39,17.44 119.57,44.83 186.83,134.51 201.77,270.27 0,24.92 -2.49,63.53 -7.48,115.82 -4.98,52.32 -7.45,89.69 -7.45,114.61 -52.32,418.5 -100.91,841.97 -145.73,1269.2 -7.48,48.55 -11.22,99.63 -11.22,153.19 0,53.56 3.74,109.6 11.22,168.13 29.88,145.73 78.47,242.88 145.73,291.47 97.14,-72.23 154.43,-117.08 171.85,-134.52 352.48,-352.47 615.3,-766 788.44,-1240.55 26.16,-74.72 43.59,-161.91 51.04,-259.06 7.49,-64.77 16.22,-166.89 28.65,-303.89 12.45,-138.25 22.42,-240.39 29.92,-308.9 7.45,-92.18 29.88,-171.89 68.5,-240.39 68.5,-133.27 170.62,-203.02 306.38,-207.99 5,0 9.97,0 14.97,0 129.52,0 234.15,59.77 313.87,179.34 38.61,57.29 73.47,135.76 102.12,232.91 5,23.67 28.64,129.55 69.74,315.14 41.1,186.8 69.78,331.29 87.21,435.92l14.94 43.59c9.97,32.37 16.19,57.29 17.44,77.23l37.37 491.96 751.53 -836.37c139.99,-293.54 341.56,-552.01 604.83,-775.33 246.63,-209.24 513.16,-313.86 799.62,-313.86 188.08,0 384.89,46.07 590.39,137 56.05,26.16 134.52,78.47 236.64,156.95 100.9,78.44 159.43,122.06 174.37,132 2.52,-4.97 6.25,-12.46 12.46,-23.64 6.25,-11.21 12.45,-22.43 19.95,-33.65 7.45,-12.46 14.94,-23.67 24.91,-32.37 61.02,-92.18 138.25,-138.28 232.91,-138.28 18.67,0 38.61,1.27 57.28,3.76 128.31,24.91 209.24,97.15 244.12,216.72 13.7,46.07 21.19,92.17 21.19,137 0,36.13 -5.01,70.99 -13.71,104.63 -18.7,125.79 -57.31,305.14 -113.36,538.04 -188.07,611.54 -316.35,1036.29 -383.61,1277.93 -33.65,107.11 -63.52,270.27 -92.17,491.96 -11.21,37.37 -17.43,90.93 -17.43,164.41 14.94,-12.46 33.62,-26.16 56.04,-42.35 23.67,-14.94 42.35,-29.88 57.29,-41.1 14.95,-12.45 26.16,-24.91 36.13,-37.37 36.13,-43.59 92.17,-108.36 168.13,-194.29 74.75,-87.21 132.03,-153.19 171.89,-199.29 308.9,-406.03 646.43,-952.81 1013.86,-1637.86 28.64,-53.56 74.72,-88.42 137,-104.63 62.28,-16.18 120.81,-9.94 176.86,16.22 22.43,14.95 44.83,34.85 69.74,58.53 41.11,33.62 56.05,74.75 43.59,120.82 12.46,38.61 5.01,80.96 -22.39,127.03 -2.49,9.97 -32.41,66.02 -89.69,168.17 -56.04,102.12 -139.49,244.12 -247.85,427.2 -108.36,181.86 -215.47,357.48 -322.6,525.61 -82.2,130.79 -186.83,282.74 -313.86,455.88 -43.59,68.5 -110.85,165.64 -203.02,291.43 -90.93,127.07 -142.01,199.29 -154.46,215.48 -63.5,94.66 -144.46,191.8 -244.12,292.71 -127.04,110.85 -259.06,166.89 -396.07,166.89 -47.32,2.49 -94.66,-3.73 -141.98,-17.43 -191.83,-48.58 -323.83,-179.35 -396.09,-391.1 -47.32,-119.57 -70.99,-237.91 -70.99,-357.45 2.49,-73.51 9.97,-180.63 23.67,-322.6 13.7,-142.01 21.15,-229.18 23.67,-261.58 16.19,-102.12 23.64,-164.41 23.64,-185.56 -12.46,14.94 -31.13,33.62 -57.29,58.53 -26.16,23.67 -42.35,42.35 -49.83,54.8 -26.12,28.65 -64.74,72.24 -114.57,130.79 -48.59,58.53 -95.91,113.33 -139.5,163.16 -43.61,49.83 -85.96,93.41 -124.57,133.27 -114.58,104.6 -229.15,185.56 -341.27,244.12 -127.03,72.23 -255.33,109.6 -384.85,109.6 -58.53,2.49 -114.61,-3.73 -168.16,-18.7 -185.56,-43.59 -333.79,-155.68 -443.39,-335.03 -137,-209.26 -205.51,-443.41 -205.51,-701.23l0.18 -16.46 -490.93 539.59c0,574.17 -82.2,1315.26 -247.85,2222 -26.16,196.78 -70.99,406.03 -130.78,627.73 -52.32,226.68 -164.41,430.96 -340.03,612.78 -194.29,219.21 -420.98,328.84 -678.8,328.84 -279.02,0 -482.03,-119.57 -605.34,-357.48 -75.95,-134.52 -113.33,-283.98 -113.33,-449.63 7.45,-717.42 141.98,-1315.26 404.8,-1794.8 80.96,-150.7 240.36,-412.26 478.27,-784.68 2.49,-4.98 7.48,-13.7 14.94,-27.4 7.49,-13.7 11.22,-22.4 13.7,-27.4 2.49,-4.98 7.49,-13.7 13.7,-27.4 6.25,-13.7 9.97,-23.64 12.46,-28.65 2.49,-6.22 4.98,-16.19 8.73,-27.4 3.73,-12.46 6.22,-22.39 6.22,-31.13 0,-8.73 0,-18.68 1.24,-29.89 1.24,-9.97 1.24,-22.42 -1.24,-33.65 -2.49,-12.45 -4.98,-24.91 -7.46,-37.37 -39.85,22.43 -62.28,44.86 -69.77,69.78 -28.65,38.58 -73.48,99.63 -134.49,181.83 -61.05,83.45 -105.87,144.49 -135.79,183.11 -36.09,43.59 -77.2,88.42 -123.3,134.49 -180.59,175.62 -364.94,262.82 -552.99,262.82 -23.67,0 -47.35,-1.24 -68.53,-3.73 -209.24,-26.16 -388.58,-158.18 -540.53,-393.58 -114.61,-193.08 -175.62,-401.07 -183.11,-627.76 -1.07,-34.4 -1.93,-68.85 -2.52,-103.05l-7.45 13.4c-362.46,671.32 -660.13,1088.58 -894.28,1254.22 -102.15,107.12 -220.45,166.92 -353.72,181.87 -24.92,2.49 -47.35,4.97 -69.75,7.45 -105.87,0 -206.78,-31.13 -301.44,-94.66 -114.57,-75.95 -194.29,-181.83 -240.36,-321.35 -58.56,-143.23 -87.2,-300.17 -87.2,-469.55 -7.45,-122.06 -11.21,-240.38 -11.21,-357.48 0,-564.2 77.22,-1093.54 231.66,-1589.27 0,-4.97 2.51,-24.91 7.48,-58.53 4.97,-33.65 12.46,-67.26 21.18,-98.42l-130.78 130.78c-257.82,292.72 -500.71,636.47 -727.39,1032.53 -23.67,43.62 -59.78,108.36 -105.88,193.08 -46.07,84.69 -88.42,163.16 -127.03,232.91 -38.61,70.99 -78.47,134.51 -117.09,193.05 -48.55,94.66 -119.57,185.58 -211.72,270.27 -84.72,79.72 -178.13,119.57 -280.25,119.57 -14.95,0 -28.65,0 -43.59,0 -117.09,-13.7 -214.23,-77.22 -291.47,-189.31 -62.25,-87.21 -108.36,-189.32 -139.49,-306.41 -44.33,-160.44 -77.7,-323.39 -99.96,-488.51 -53.56,87.39 -106.94,173.04 -160.35,256.84 -82.2,130.79 -186.83,282.74 -313.86,455.88 -43.59,68.5 -110.85,165.64 -203.02,291.43 -90.93,127.07 -142.01,199.29 -154.46,215.48 -63.5,94.66 -144.46,191.8 -244.12,292.71 -127.04,110.85 -259.07,166.89 -396.07,166.89 -47.32,2.49 -94.66,-3.73 -141.98,-17.43 -191.83,-48.58 -323.83,-179.35 -396.09,-391.1 -47.32,-119.57 -70.99,-237.91 -70.99,-357.45 2.49,-73.51 9.97,-180.63 23.67,-322.6 13.7,-142.01 21.15,-229.18 23.67,-261.58 16.19,-102.12 23.64,-164.41 23.64,-185.56 -12.46,14.94 -31.13,33.62 -57.29,58.53 -26.16,23.67 -42.35,42.35 -49.83,54.8 -26.13,28.65 -64.74,72.24 -114.58,130.79 -48.58,58.53 -95.9,113.33 -139.49,163.16 -43.61,49.83 -85.96,93.41 -124.57,133.27 -114.58,104.6 -229.15,185.56 -341.27,244.12 -127.03,72.23 -255.33,109.6 -384.85,109.6 -58.53,2.49 -114.61,-3.73 -168.17,-18.7 -185.55,-43.59 -333.78,-155.68 -443.38,-335.03 -37.46,-57.23 -69.81,-116.32 -97.03,-177.24 -28.58,44.35 -62.22,91.19 -100.99,139.87 -83.48,150.7 -190.6,269.03 -322.6,353.72 -107.12,61.05 -212.99,90.93 -317.63,90.93l-54.8 -3.76c-124.55,-12.43 -236.64,-64.74 -336.3,-156.92 -85.93,-97.15 -153.19,-185.59 -205.51,-265.31 -130.75,-229.18 -245.36,-490.73 -342.5,-787.17 -47.35,-143.22 -117.09,-356.21 -212.99,-637.71 -94.66,-281.5 -164.41,-494.45 -207.99,-637.71 -2.49,-17.43 -19.95,-62.28 -51.07,-134.51 -49.83,28.64 -75.99,47.35 -80.96,54.8 -239.16,225.45 -388.62,366.18 -449.63,422.22 -52.31,43.59 -77.22,102.15 -77.22,174.38 -4.98,257.81 -11.22,645.18 -18.68,1164.55 -7.48,518.13 -13.7,905.5 -17.46,1164.56 0,43.59 -3.73,74.75 -8.7,94.66 -13.7,143.25 -79.71,225.46 -195.56,247.85 -63.5,19.95 -125.79,18.71 -186.8,-3.73 -61.05,-22.4 -105.87,-61.02 -137.03,-117.05 -39.86,-77.23 -63.5,-168.17 -70.99,-270.28 -9.97,-92.17 -18.68,-190.59 -26.16,-295.2 -7.45,-104.63 -14.94,-222.97 -22.4,-354.96 -7.48,-132.03 -13.7,-232.94 -18.7,-303.93 -72.23,-1027.55 -108.36,-2138.56 -108.36,-3333 0,-231.66 1.24,-465.81 3.73,-703.72zm15895.33 3442.6c-7.45,28.65 -11.19,58.56 -11.19,90.93 0,74.72 18.68,156.95 54.81,244.12 404.77,-293.96 804.59,-675.08 1200.66,-1142.13 -68.5,-124.58 -134.51,-200.53 -196.78,-229.18 -31.16,-17.46 -73.5,-26.16 -125.82,-26.16 -43.59,0 -93.38,6.22 -151.95,18.68 -119.57,28.64 -209.23,72.23 -267.79,130.78 -267.77,240.39 -434.68,545.53 -501.94,912.96zm-3118.77 3665.57c18.67,87.18 42.34,154.44 69.74,200.53 41.1,87.18 99.63,130.76 174.37,130.76 38.62,0 83.45,-13.7 132.03,-39.83 92.14,-53.56 154.44,-138.28 185.56,-255.33 5,-24.91 12.46,-66.01 23.67,-125.82 11.21,-59.78 19.95,-110.85 26.16,-153.19 4.97,-42.35 8.72,-84.69 8.72,-125.79 -29.92,-889.31 -43.62,-1341.42 -43.62,-1355.12 0,-27.4 -3.73,-71.02 -9.94,-132.03 -5,-61.05 -9.96,-102.15 -12.45,-123.3 -28.65,18.67 -49.83,33.62 -62.29,43.59 -332.53,539.31 -499.46,1112.24 -499.46,1720.06 0,70.99 2.49,142.01 7.49,215.47zm-8372.4 -3665.57c-7.46,28.65 -11.19,58.56 -11.19,90.93 0,74.72 18.68,156.95 54.81,244.12 404.77,-293.96 804.58,-675.08 1200.66,-1142.13 -68.5,-124.58 -134.52,-200.53 -196.78,-229.18 -31.16,-17.46 -73.51,-26.16 -125.82,-26.16 -43.59,0 -93.38,6.22 -151.95,18.68 -119.57,28.64 -209.23,72.23 -267.79,130.78 -267.76,240.39 -434.67,545.53 -501.93,912.96z"/>
 </g>
</svg>
